<?xml version="1.0" encoding="utf-8"?>
<svg viewBox="82.578 34.249 274.275 250.825" width="274.275" height="250.825" xmlns="http://www.w3.org/2000/svg" xmlns:bx="https://boxy-svg.com">
  <path style="stroke: rgba(0, 0, 0, 0); fill: rgb(0, 111, 27);" d="M 149.566 244.033 L 298.74 249.957 L 228.033 284.129 L 149.566 244.033 Z" transform="matrix(1, 0, 0, 1, 7.105427357601002e-15, 0)"/>
  <path style="stroke: rgba(0, 0, 0, 0); fill: rgb(0, 112, 24);" d="M 149.763 246.082 L 82.578 178.106 L 142.254 129.495 L 141.464 74.561 L 186.123 74.166 L 216.949 34.249 L 252.518 73.77 L 306.662 74.166 L 307.847 128.309 L 356.853 180.477 L 297.967 251.22 L 149.763 246.082 Z" transform="matrix(1, 0, 0, 1, 7.105427357601002e-15, 0)"/>
  <rect x="152.448" y="137.353" width="14.118" height="41.242" style="stroke: rgb(0, 0, 0); stroke-opacity: 0; fill: rgb(255, 255, 255);" transform="matrix(1, 0, 0, 1, 7.105427357601002e-15, 0)"/>
  <rect x="278.538" y="187.215" width="19.406" height="70.777" style="stroke: rgb(0, 0, 0); stroke-opacity: 0; fill: rgb(255, 255, 255);" transform="matrix(1, 0, 0, 1, 7.105427357601002e-15, 0)"/>
  <rect x="150.113" y="186.644" width="19.406" height="70.777" style="stroke: rgb(0, 0, 0); stroke-opacity: 0; fill: rgb(255, 255, 255);" transform="matrix(1, 0, 0, 1, 7.105427357601002e-15, 0)"/>
  <rect x="183.487" y="200.269" width="14.118" height="63.892" style="stroke: rgb(0, 0, 0); stroke-opacity: 0; fill: rgb(255, 255, 255);" transform="matrix(1, 0, 0, 1, 7.105427357601002e-15, 0)"/>
  <rect x="252.276" y="202.506" width="14.118" height="61.935" style="stroke: rgb(0, 0, 0); stroke-opacity: 0; fill: rgb(255, 255, 255);" transform="matrix(1, 0, 0, 1, 7.105427357601002e-15, 0)"/>
  <rect x="206.416" y="201.666" width="10.762" height="70.324" style="stroke: rgb(0, 0, 0); stroke-opacity: 0; fill: rgb(255, 255, 255);" transform="matrix(1, 0, 0, 1, 7.105427357601002e-15, 0)"/>
  <rect x="229.626" y="201.667" width="10.762" height="70.324" style="stroke: rgb(0, 0, 0); stroke-opacity: 0; fill: rgb(255, 255, 255);" transform="matrix(1, 0, 0, 1, 7.105427357601002e-15, 0)"/>
  <path style="paint-order: fill; stroke-linejoin: round; fill: rgb(255, 255, 255); stroke: rgb(0, 156, 26);" d="M 222.254 285.074 L 126.689 258.236 L 122.123 238.259 L 221.45 271.678 L 319.041 248.533 L 316.758 265.085 L 222.254 285.074 Z" transform="matrix(1, 0, 0, 1, 7.105427357601002e-15, 0)"/>
  <rect x="142.123" y="178.082" width="34.817" height="9.132" style="stroke: rgba(0, 0, 0, 0); fill: rgb(255, 255, 255);" transform="matrix(1, 0, 0, 1, 7.105427357601002e-15, 0)"/>
  <rect x="270.548" y="178.652" width="34.817" height="9.132" style="stroke: rgba(0, 0, 0, 0); fill: rgb(255, 255, 255);" transform="matrix(1, 0, 0, 1, 7.105427357601002e-15, 0)"/>
  <rect x="280.687" y="137.664" width="14.118" height="41.242" style="stroke: rgb(0, 0, 0); stroke-opacity: 0; fill: rgb(255, 255, 255);" transform="matrix(1, 0, 0, 1, 7.105427357601002e-15, 0)"/>
  <rect x="146.471" y="132.749" width="25.191" height="9.132" style="stroke: rgba(0, 0, 0, 0); fill: rgb(255, 255, 255);" transform="matrix(1, 0, 0, 1, 7.105427357601002e-15, 0)"/>
  <rect x="275.021" y="131.817" width="25.191" height="9.132" style="stroke: rgba(0, 0, 0, 0); fill: rgb(255, 255, 255);" transform="matrix(1, 0, 0, 1, 7.105427357601002e-15, 0)"/>
  <rect x="152.323" y="112.637" width="14.118" height="41.242" style="stroke: rgb(0, 0, 0); stroke-opacity: 0; fill: rgb(255, 255, 255);" transform="matrix(1, 0, 0, 1, 7.105427357601002e-15, 0)"/>
  <rect x="280.551" y="112.512" width="14.118" height="41.242" style="stroke: rgb(0, 0, 0); stroke-opacity: 0; fill: rgb(255, 255, 255);" transform="matrix(1, 0, 0, 1, 7.105427357601002e-15, 0)"/>
  <path d="M 159.177 83.819 L 165.697 113.007 L 152.656 113.007 L 159.177 83.819 Z" style="stroke: rgba(0, 0, 0, 0); fill: rgb(255, 255, 255);" transform="matrix(1, 0, 0, 1, 7.105427357601002e-15, 0)" bx:shape="triangle 152.656 83.819 13.041 29.188 0.5 0 1@0670e56f"/>
  <path d="M 287.513 83.625 L 294.033 112.813 L 280.992 112.813 L 287.513 83.625 Z" style="stroke: rgba(0, 0, 0, 0); fill: rgb(255, 255, 255);" transform="matrix(1, 0, 0, 1, 7.105427357601002e-15, 0)" bx:shape="triangle 280.992 83.625 13.041 29.188 0.5 0 1@04f345f7"/>
  <rect x="183.505" y="190.58" width="83.05" height="12.304" style="stroke: rgba(0, 0, 0, 0); fill: rgb(255, 255, 255);" transform="matrix(1, 0, 0, 1, 7.105427357601002e-15, 0)"/>
  <path d="M 202.014 155.049 Q 221.621 129.323 244.732 155.049 L 244.732 155.049 Q 267.842 180.774 225.124 180.774 L 225.124 180.774 Q 182.406 180.774 202.014 155.049 Z" style="stroke: rgba(0, 0, 0, 0); fill: rgb(255, 255, 255);" transform="matrix(1, 0, 0, 1, 7.105427357601002e-15, 0)" bx:shape="triangle 182.406 129.323 85.436 51.451 0.459 0.5 1@5b7e4723"/>
  <rect x="192.454" y="184.149" width="63.476" height="6.711" style="stroke: rgba(0, 0, 0, 0); fill: rgb(255, 255, 255);" transform="matrix(1, 0, 0, 1, 7.105427357601002e-15, 0)"/>
  <rect x="187.141" y="179.394" width="74.381" height="5.034" style="stroke: rgba(0, 0, 0, 0); fill: rgb(255, 255, 255);" transform="matrix(1, 0, 0, 1, 7.105427357601002e-15, 0)"/>
  <rect x="197.487" y="173.523" width="54.248" height="6.711" style="stroke: rgba(0, 0, 0, 0); fill: rgb(255, 255, 255);" transform="matrix(1, 0, 0, 1, 7.105427357601002e-15, 0)"/>
  <path d="M 223.371 192.153 L 229.682 203.059 L 217.059 203.059 L 223.371 192.153 Z" style="stroke: rgba(0, 0, 0, 0); fill: rgb(6, 111, 0);" transform="matrix(1, 0, 0, 1, 7.105427357601002e-15, 0)" bx:shape="triangle 217.059 192.153 12.623 10.906 0.5 0 1@14ea05fb"/>
  <path style="stroke: rgba(0, 0, 0, 0); fill: rgb(255, 255, 255);" d="M 226.303 143.003 L 223.896 124.049 L 227.506 121.642 L 228.71 116.527 L 226.905 111.413 L 221.188 109.608 L 212.163 109.909 L 221.188 112.917 L 224.197 116.227 L 223.294 120.138 L 218.481 120.739 L 212.163 117.43 L 216.675 123.748 L 220.286 125.553 L 221.188 143.304 L 226.303 143.003 Z" transform="matrix(1, 0, 0, 1, 7.105427357601002e-15, 0)"/>
</svg>